<?xml version="1.0" standalone="no"?>
<!DOCTYPE svg PUBLIC "-//W3C//DTD SVG 20010904//EN"
 "http://www.w3.org/TR/2001/REC-SVG-20010904/DTD/svg10.dtd">
<svg version="1.0" xmlns="http://www.w3.org/2000/svg"
 width="512.000000pt" height="512.000000pt" viewBox="0 0 512.000000 512.000000"
 preserveAspectRatio="xMidYMid meet">
<metadata>
Created by potrace 1.14, written by Peter Selinger 2001-2017
</metadata>
<g transform="translate(0.000000,512.000000) scale(0.100000,-0.100000)"
fill="#000000" stroke="none">
<path d="M1292 3847 c-688 -688 -1252 -1257 -1252 -1262 0 -16 2494 -2505
2510 -2505 16 0 2510 2489 2510 2505 0 10 -2500 2515 -2510 2515 -3 0 -569
-564 -1258 -1253z m1588 240 c304 -73 549 -208 759 -418 667 -666 571 -1786
-199 -2330 -523 -370 -1218 -379 -1753 -22 -120 79 -286 236 -372 352 -346
460 -402 1089 -143 1606 77 154 160 268 288 395 238 239 516 380 855 436 54 9
143 12 270 10 159 -4 207 -8 295 -29z"/>
<path d="M2378 3979 c-319 -39 -613 -189 -840 -427 -245 -258 -378 -593 -378
-953 0 -651 434 -1203 1065 -1355 630 -151 1277 151 1567 731 164 328 192 707
77 1058 -68 209 -178 387 -339 547 -199 200 -434 326 -710 381 -112 23 -334
32 -442 18z m202 -1052 l45 -13 3 -82 c3 -92 1 -95 -63 -62 -55 28 -147 27
-200 -3 -80 -45 -123 -165 -95 -267 21 -79 105 -140 190 -140 14 0 52 12 85
25 33 14 66 25 73 25 8 0 12 -20 12 -66 l0 -65 -47 -21 c-109 -49 -297 -31
-400 37 -205 136 -185 478 36 599 100 54 245 67 361 33z m631 -2 c19 -9 48
-33 66 -53 l32 -37 38 36 c60 58 98 74 179 73 96 0 155 -33 190 -107 23 -51
24 -57 24 -334 l0 -283 -85 0 -85 0 0 233 c0 127 -5 250 -10 272 -26 115 -166
112 -218 -5 -12 -27 -17 -87 -20 -267 l-4 -233 -83 0 -84 0 -3 258 c-3 265 -6
288 -47 319 -46 35 -142 0 -175 -63 -19 -36 -21 -60 -24 -276 l-4 -238 -89 0
-89 0 3 355 2 355 83 0 82 0 0 -46 0 -46 47 41 c25 23 67 48 92 56 55 18 135
13 182 -10z m-1375 -13 c23 -12 53 -35 67 -52 49 -58 57 -111 57 -376 0 -272
6 -254 -80 -254 -64 0 -80 7 -80 35 l0 24 -59 -31 c-44 -22 -78 -32 -128 -35
-180 -13 -295 83 -280 233 13 129 97 185 320 211 143 18 149 21 127 64 -33 61
-171 66 -285 10 -90 -44 -97 -40 -93 56 l3 78 40 19 c70 35 135 46 245 42 83
-2 114 -7 146 -24z m164 -893 l0 -91 31 26 c55 46 119 27 139 -42 5 -20 10
-79 10 -129 l0 -93 -40 0 -40 0 0 97 c0 76 -4 100 -17 115 -20 22 -41 23 -65
1 -15 -13 -18 -32 -18 -115 l0 -98 -40 0 -40 0 0 210 0 210 40 0 40 0 0 -91z
m-167 71 c13 0 17 -9 17 -40 0 -42 -4 -44 -67 -25 -22 7 -80 -15 -102 -39 -46
-49 -46 -153 0 -202 27 -29 81 -40 131 -27 l38 10 0 -34 c0 -27 -5 -35 -27
-44 -44 -17 -148 -7 -180 17 -102 76 -109 251 -13 338 22 19 52 38 67 42 16 3
33 7 38 10 6 2 26 1 45 -1 19 -3 43 -5 53 -5z m1185 -118 c29 -3 33 -6 30 -30
-2 -22 -9 -28 -35 -30 l-33 -3 0 -59 c0 -80 13 -110 45 -110 23 0 26 -4 23
-27 -3 -25 -8 -28 -44 -31 -29 -2 -48 3 -65 17 -22 17 -24 29 -29 118 -5 90
-7 98 -25 98 -14 0 -21 8 -23 28 -3 23 0 27 22 27 23 0 26 4 26 34 0 29 4 34
33 43 32 9 32 9 37 -32 5 -37 8 -40 38 -43z m-599 -6 c41 -22 51 -55 51 -171
l0 -105 -35 0 c-24 0 -35 5 -35 15 0 20 -6 19 -30 -5 -24 -24 -77 -26 -107 -5
-43 30 -38 121 6 145 11 6 44 15 72 20 62 12 63 13 54 39 -9 29 -49 36 -96 18
l-39 -15 0 29 c0 24 5 30 33 38 48 14 95 13 126 -3z m344 3 c13 -6 32 -25 42
-42 24 -40 24 -140 1 -185 -30 -58 -116 -82 -155 -43 -11 11 -22 17 -25 14 -3
-4 -6 -42 -6 -85 l0 -78 -35 0 -35 0 0 210 0 210 35 0 c28 0 35 -4 35 -20 0
-11 5 -20 10 -20 6 0 10 4 10 10 0 13 50 39 77 40 12 0 33 -5 46 -11z m513 -4
c39 -16 64 -62 64 -120 l0 -35 -90 0 c-57 0 -90 -4 -90 -11 0 -44 63 -75 120
-59 19 6 36 10 37 10 2 0 3 -11 3 -25 0 -30 -30 -45 -92 -45 -89 0 -138 52
-138 147 0 62 27 113 71 135 42 22 69 22 115 3z m294 -24 c0 -35 -2 -38 -24
-34 -16 3 -31 -2 -45 -16 -18 -18 -21 -33 -21 -111 l0 -90 -40 0 -40 0 0 140
0 140 40 0 c36 0 40 -3 40 -24 l0 -24 29 29 c42 41 61 38 61 -10z"/>
<path d="M1652 2525 c-101 -13 -141 -33 -153 -76 -22 -85 107 -131 211 -76 49
25 90 90 90 139 0 33 -2 33 -148 13z"/>
<path d="M2317 1802 c-21 -23 -21 -36 -1 -57 30 -29 84 4 84 52 0 19 -5 23
-33 23 -20 0 -41 -8 -50 -18z"/>
<path d="M2653 1905 c-57 -40 -33 -165 31 -165 56 0 87 101 46 153 -24 31 -46
34 -77 12z"/>
<path d="M3185 1905 c-37 -36 -31 -45 30 -45 48 0 55 3 55 19 0 18 -34 51 -53
51 -4 0 -19 -11 -32 -25z"/>
</g>
</svg>
